<?xml version="1.0" encoding="UTF-8"?>
<svg id="Ebene_3" data-name="Ebene 3" xmlns="http://www.w3.org/2000/svg" viewBox="0 0 579.08 294.43">
  <path d="M405.93,130.11s4.98,4.36,4.74,6.82c-.06.57-.3,1.05-.3,1.05-.39.78-1.06,1.19-1.51,1.43-2.78,1.51-5.97,1.95-5.97,1.95-3.1.43-5.5.54-6.02.57-3.95.17-6.69.2-8.22.23-4.03.08-7.42.14-11.09.67-1.43.21-6.57,1.01-12.8,3.62-4.84,2.03-7.76,3.25-10.75,6.27-3.37,3.4-4.92,7.17-5.63,8.93-1.2,2.99-1.64,5.52-1.82,6.78-.48,3.45-.21,6.12-.12,6.88.23,1.96.66,3.62.84,4.32.28,1.05.57,1.94.76,2.52.48,1.41,1.03,2.73,1.28,3.31.24.57.46,1.14.7,1.71,0,0,.25.6.6,1.68.22.7.31,1.07.12,1.36-.15.22-.4.28-.46.3-.58.14-1.16-.35-1.42-.57-3.31-2.84-4.24-4.01-4.24-4.01-1.16-1.46-1.75-2.19-2.64-3.45-1-1.41-2.28-3.24-3.68-5.8-1.6-2.92-2.51-5.27-3.08-6.76-.19-.49-1.67-4.39-2.41-8.29-.48-2.56-.36-3.6-.28-4.08.02-.11.09-.67.24-1.79.13-.97.19-1.47.02-2.01-.06-.2-.2-.64-.6-1.03-.42-.41-.88-.55-1.44-.7-.44-.12-.76-.16-1.49-.23-1.76-.17-1.78-.14-2.21-.21-.15-.02-1.19-.18-2.31-.65-1.12-.47-1.91-1.07-2.6-1.66-2.13-1.8-3.7-3.7-4.26-4.39-1.24-1.53-2.6-3.2-4.12-5.7-.5-.82-2.06-3.44-3.52-7.12-.3-.75-1.17-3-1.95-6.01-.37-1.42-.57-2.45-.92-4.18-.56-2.8-.87-4.92-1.07-6.33-.37-2.55-.48-3.81-.52-4.28-.21-2.53-.13-3.6-.1-3.93.11-1.23.21-2.37.83-3.71.69-1.5,1.65-2.43,2.13-2.9.66-.63,1.46-1.23,2.59-1.82,2.89-1.53,5.91-1.99,7.33-2.16.86-.1,4.28-.47,9.99.41,3.07.48,5.29,1.08,7.81,1.78,7.74,2.15,11.6,3.22,14.86,4.28,10.39,3.38,18.19,6.7,21.73,8.22,2.55,1.09,5.77,2.48,9.5,4.22,3.01,1.41,5.09,2.38,7.89,3.88,2.42,1.29,5.72,3.07,9.69,5.83,0,0,2.59,1.8,5.9,4.7ZM337.75,110.49c-1.16.09-5.24.45-8.79,3.53-1.82,1.58-2.78,3.25-3.38,4.32-.52.92-1.39,2.65-1.91,4.99-.25,1.13-.59,2.68-.43,4.69.18,2.2.85,3.78,1.27,4.75,1.43,3.29,3.51,5.29,4.48,6.2,1.27,1.19,3.15,2.92,6.14,3.93,1.48.5,3.51,1.18,5.89.5,1.77-.51,2.91-1.53,3.38-1.97,1.61-1.48,2.25-3.15,2.62-4.13.54-1.41.68-2.56.71-2.84.16-1.41.01-2.62-.05-3.09-.16-1.31-.41-1.79-.32-2.95.07-.86.26-1.32.38-1.58.31-.63.71-1,1.11-1.36.13-.12.73-.65,1.72-1.13.73-.36,1.31-.51,2.05-.7.52-.13,1.59-.38,3.03-.5.89-.07,1.7-.14,2.8,0,.45.05,1.31.16,2.3.51.82.29,1.24.43,1.35.49.44.23.71.45,1.06.37.2-.05.43-.19.51-.41.14-.38-.2-.82-.39-1.06-1.32-1.65-2.71-2.73-2.71-2.73-2.26-1.75-1.79-1.45-2.61-2.05-1.4-1.02-2.52-1.72-3.25-2.18-1.01-.63-1.86-1.17-2.96-1.74-1.94-1.02-3.45-1.56-5.61-2.32-2.14-.76-3.23-1.14-4.58-1.35-1.91-.3-3.41-.2-3.81-.17Z"/>
  <path d="M389.68,145.19c-2.85-.68-6.73-1.6-11.59-1.6-2,0-4.23.15-5.34.23-2.09.15-3.14.22-4.31.42-1.09.19-3.56.63-6.35,2.03-1.07.54-3.84,2.05-6.43,5.04-1.02,1.18-3.5,4.11-4.59,8.7-1.35,5.75.37,10.41.95,11.93.9,2.34,2.1,4.13,2.95,5.41.61.91,1.99,2.89,4.15,5.09.77.78,1.83,1.86,3.41,3.06,1.86,1.41,3.44,2.23,4.61,2.83,0,0,3.12,1.6,5.72,2.36.46.14.81.2,1.32.29.12.02.46.08.92.07.6,0,.77-.12.86-.22.03-.03.15-.18.15-.37,0-.2-.14-.34-.39-.58-.46-.43-.75-.65-.75-.65-.3-.23-.58-.48-.88-.71,0,0-.72-.55-1.59-1.3-1.16-1-2.11-1.82-2.96-3.13-.51-.8-.77-1.44-.82-1.57-.22-.56-.55-1.43-.55-2.59,0-1.08.3-1.89.49-2.39.38-1,.86-1.65,1.46-2.45.5-.67,1.44-1.89,3.01-3.08.51-.39,1.17-.83,2.86-1.68,2.9-1.46,5.29-2.34,6.02-2.6.53-.19,1.84-.66,6.05-1.87,3.75-1.08,5.62-1.63,7.51-2.07,3.42-.8,6.03-1.19,8.35-1.53,4.26-.63,7.72-.88,10.69-1.1s4.3-.32,5.33-.37c.18,0,1.06-.07,2.82-.18.4-.03,1.24-.08,2.3-.2,0,0,.71-.08,1.71-.27,0,0,.37-.07.93-.24.36-.11.51-.17.65-.27.2-.13.51-.33.51-.61,0-.23-.21-.41-.36-.54-.12-.1-.24-.16-.47-.28,0,0-.22-.11-.42-.19-1.54-.62-5.16-1.29-5.16-1.29-.53-.1-1.54-.39-3.57-.96-1.23-.35-3.27-.93-5.79-1.79-3.13-1.07-5.5-2.06-6.26-2.38-2.8-1.18-3.25-1.55-6.33-2.81-.94-.39-2.24-.92-3.9-1.51-3.41-1.21-6.12-1.87-6.91-2.06Z"/>
  <path d="M289.06,151.51s1.25-3.78,2.67-4.21c.33-.1.65-.08.65-.08.52.04.91.31,1.15.5,1.48,1.19,2.48,2.85,2.48,2.85.96,1.62,1.59,2.92,1.72,3.2,1.02,2.15,1.67,3.65,2.05,4.5.98,2.21,1.81,4.07,2.96,5.98.45.74,2.09,3.4,5,6.24,2.25,2.21,3.61,3.54,5.98,4.49,2.67,1.07,5.12,1.05,6.26,1.03,1.94-.03,3.44-.38,4.18-.58,2.02-.54,3.44-1.31,3.83-1.54,1.03-.58,1.85-1.21,2.2-1.48.52-.4.94-.77,1.22-1.01.67-.6,1.27-1.21,1.54-1.48.26-.26.52-.52.78-.79,0,0,.27-.28.79-.72.34-.29.52-.42.73-.38.16.03.25.15.27.19.21.28.08.72.02.92-.8,2.5-1.23,3.28-1.23,3.28-.54.98-.8,1.48-1.29,2.27-.55.88-1.26,2.02-2.35,3.39-1.24,1.56-2.33,2.62-3.02,3.29-.23.22-2.04,1.95-4.03,3.27-1.3.86-1.91,1.04-2.19,1.1-.07.02-.39.1-1.05.28-.57.15-.86.24-1.12.46-.1.08-.31.26-.43.57-.13.33-.1.61-.05.96.04.27.09.46.22.88.32,1.01.34,1.02.4,1.27.02.09.18.7.18,1.43,0,.73-.15,1.3-.31,1.83-.5,1.6-1.18,2.91-1.43,3.39-.56,1.05-1.16,2.18-2.19,3.61-.34.47-1.42,1.94-3.12,3.61-.35.34-1.39,1.35-2.87,2.48-.7.53-1.22.89-2.1,1.48-1.42.96-2.52,1.63-3.25,2.07-1.33.8-2,1.16-2.24,1.29-1.35.71-1.96.91-2.15.97-.71.23-1.36.44-2.25.41-.99-.03-1.73-.34-2.1-.51-.51-.22-1.02-.52-1.62-1.01-1.52-1.25-2.48-2.81-2.91-3.55-.26-.45-1.26-2.26-2.11-5.63-.45-1.81-.64-3.18-.84-4.74-.62-4.78-.93-7.18-1.1-9.23-.56-6.54-.54-11.63-.52-13.95.01-1.66.02-3.77.12-6.24.08-1.99.13-3.37.3-5.27.15-1.64.36-3.88.97-6.73,0,0,.39-1.85,1.22-4.36ZM294.12,193.83c.32.62,1.47,2.79,4.01,4.04,1.3.64,2.45.78,3.18.86.63.07,1.79.15,3.21-.11.69-.12,1.62-.3,2.7-.86,1.18-.61,1.9-1.35,2.33-1.81,1.49-1.56,2.11-3.18,2.39-3.93.36-.98.88-2.42.74-4.32-.07-.94-.16-2.22-1.1-3.37-.69-.86-1.53-1.25-1.88-1.41-1.19-.54-2.27-.51-2.9-.49-.91.03-1.57.22-1.74.27-.82.24-1.45.61-1.7.75-.69.4-.89.64-1.56.87-.49.16-.79.17-.97.16-.42-.02-.72-.16-1.02-.3-.1-.05-.53-.25-1.03-.69-.37-.32-.59-.61-.87-.97-.19-.26-.59-.79-.98-1.56-.25-.48-.47-.91-.65-1.55-.07-.26-.21-.76-.25-1.39-.03-.52-.05-.78-.04-.86.02-.3.08-.5-.04-.67-.07-.1-.21-.19-.35-.19-.24,0-.41.3-.5.46-.61,1.12-.88,2.13-.88,2.13-.44,1.66-.38,1.33-.52,1.92-.24,1.01-.36,1.8-.45,2.31-.11.71-.21,1.31-.27,2.05-.11,1.31-.06,2.27.02,3.65.08,1.36.12,2.06.32,2.85.28,1.13.68,1.93.79,2.15Z"/>
  <path d="M310.31,147.43c-.68.15-1.79.39-3.01-.07-.59-.22-1.01-.53-1.29-.73-.28-.21-.79-.59-1.27-1.24-.41-.56-.6-1.07-.83-1.66-.2-.53-.35-.93-.47-1.5-.08-.38-.22-.75-.32-1.13-.06-.24-.12-.48-.29-.53-.16-.05-.34.08-.4.13-.7.54-1.03,2.39-1.03,2.39-.24,1.34-.36,2.01-.44,3.13-.06.81-.08,1.58-.07,2.33.02,2.4.31,4.23.39,4.74.13.77.36,2.13.91,3.85.18.55.8,2.4,2.04,4.65.49.88,1.09,1.96,2.11,3.25,1.16,1.45,2.27,2.44,2.88,2.95.63.53,1.86,1.47,3.58,2.37.8.41,2.18,1.07,4.01,1.57.55.15,2.51.67,5.15.74.77.02,3.35.06,6.52-.74,0,0,1.78-.45,4.52-1.62.57-.24.98-.47,1.15-.57.08-.04.36-.21.72-.46.17-.12.33-.25.64-.5.3-.24.44-.37.48-.56,0-.05.03-.18-.04-.3,0-.02-.06-.09-.17-.14-.24-.11-.53,0-.81.08-.04.01-.29.07-.79.17-.38.08-.65.11-1.14.15-.71.06-1.46.12-2.35.09-1.62-.06-2.96-.4-3.82-.67-.71-.22-1.68-.59-2.75-1.2-.38-.22-1.98-1.15-3.61-2.89-.34-.36-.78-.84-1.27-1.55-.16-.24-.85-1.25-1.47-2.92-.66-1.77-.85-3.21-1-4.41-.06-.48-.22-1.82-.21-3.56,0-2.38.01-4.06.13-5.12,0,0,.07-.67-.1-1.53-.04-.2-.08-.31-.17-.53-.09-.23-.15-.3-.22-.36-.15-.12-.34-.11-.38-.1-.25.01-.43.2-.97.89-.42.54-.45.61-.68.87-.15.17-.37.43-.67.69-.1.09-.48.42-1.2.8-.43.23-1.08.56-1.99.76Z"/>
  <path d="M342.17,200.52c-.46.52-1.23,1.36-1.44,2.64-.1.62-.04,1.14,0,1.48.04.34.12.98.45,1.72.29.64.63,1.05,1.03,1.54.36.44.64.77,1.07,1.15.29.26.54.57.82.84.18.18.35.34.32.52-.03.16-.24.25-.31.28-.81.34-2.59-.29-2.59-.29-1.28-.46-1.92-.68-2.93-1.17-.73-.35-1.41-.72-2.06-1.09-2.07-1.21-3.52-2.37-3.92-2.7-.6-.49-1.67-1.37-2.89-2.71-.39-.43-1.69-1.89-3.02-4.08-.52-.86-1.16-1.92-1.77-3.45-.69-1.73-.99-3.18-1.13-3.96-.14-.81-.36-2.34-.28-4.28.04-.9.16-2.43.63-4.26.14-.55.67-2.51,1.92-4.84.36-.68,1.62-2.94,3.88-5.29,0,0,1.28-1.32,3.65-3.12.5-.37.89-.61,1.07-.72.08-.04.36-.21.76-.4.19-.09.38-.16.75-.31.36-.14.54-.2.72-.13.04.02.17.06.24.18,0,.02.05.09.03.21-.03.26-.27.46-.47.66-.03.03-.2.22-.54.6-.26.29-.41.51-.69.92-.4.58-.83,1.21-1.25,2-.75,1.43-1.13,2.77-1.32,3.65-.16.72-.32,1.75-.32,2.99,0,.44.01,2.29.71,4.57.15.48.34,1.09.71,1.87.13.26.67,1.36,1.81,2.73,1.21,1.45,2.36,2.33,3.33,3.06.39.29,1.47,1.09,2.98,1.95,2.07,1.17,3.53,2.01,4.51,2.44,0,0,.61.27,1.28.84.15.13.23.23.37.41.15.2.19.28.2.37.02.19-.08.35-.1.38-.14.21-.39.27-1.26.4-.68.1-.75.09-1.09.16-.22.04-.56.11-.93.24-.12.04-.61.21-1.29.64-.41.26-1.03.66-1.65,1.35Z"/>
  <path d="M299.01,128.85c.38-.34.89-.79,1.64-1.15.41-.2,1.2-.57,2.28-.56.98,0,1.7.32,2.17.53.83.37,1.37.82,1.79,1.18.16.13.73.62,1.36,1.4.35.44.91,1.14,1.37,2.18.28.65.71,1.62.69,2.94,0,.68-.02,1.59-.63,2.49-.7,1.03-1.73,1.4-2.1,1.53-.78.28-1.46.27-1.82.26-.68-.02-1.19-.16-1.67-.28-.49-.13-.84-.23-1.28-.48-.26-.15-.68-.39-1.05-.84-.35-.43-.59-.94-.59-.94-.17-.35-.18-.49-.36-.64-.28-.23-.65-.23-.81-.23-.31,0-.54.1-.88.25-.07.03-.3.13-.73.39-.47.28-.81.49-1.2.86-.14.13-.35.33-.59.65-.27.37-.46.74-.54.9-.08.17-.17.3-.34.57-.11.17-.2.3-.33.31-.1,0-.18-.06-.2-.07-.19-.15-.18-.48-.16-.74.03-.38.07-.84.13-1.38.03-.25.08-.61.15-1.04.11-.65.2-1.19.36-1.82.14-.53.27-.89.47-1.42.52-1.39,1.01-2.33,1.14-2.57.48-.89.77-1.26.92-1.44.33-.39.62-.66.81-.83Z"/>
  <path d="M290.26,90.13c-.28-.03-.66-.07-1.12,0-.25.04-.73.13-1.22.48-.45.32-.67.7-.82.95-.26.44-.36.82-.44,1.12-.03.11-.13.52-.17,1.08-.02.31-.05.82.08,1.44.08.39.2.97.63,1.57.22.31.52.72,1.09.94.65.25,1.25.08,1.46.02.45-.13.75-.35.92-.47.31-.23.5-.46.67-.67.18-.22.31-.38.43-.63.07-.15.18-.4.21-.72.02-.31-.03-.62-.03-.62-.04-.21-.08-.28-.04-.41.05-.2.22-.31.3-.37.14-.1.28-.13.48-.17.04,0,.18-.04.46-.06.31-.02.53-.04.83,0,.1.01.27.04.48.11.24.08.45.19.54.24.09.05.17.08.34.15.1.04.19.07.25.03.05-.03.07-.08.07-.1.04-.13-.08-.28-.17-.39-.13-.16-.3-.36-.51-.59-.1-.11-.24-.25-.41-.43-.26-.26-.47-.48-.75-.72-.23-.2-.41-.32-.67-.5-.69-.47-1.21-.74-1.35-.81-.51-.25-.76-.33-.89-.36-.28-.07-.5-.1-.64-.12Z"/>
  <path d="M287.93,90.43c.56.59,1.23.89,1.54,1.02.36.15.63.23.96.32.09.02.82.22,1.62.28.19.01.09,0,.81-.02,0,0,.09,0,.26-.05.01,0,.12-.03.19-.1.02-.02.03-.04.04-.07,0-.02,0-.05-.02-.07-.06-.1-.25-.21-.25-.21-.14-.08,0,0-.28-.18-.14-.08-.18-.1-.25-.15-.12-.07-.28-.16-.46-.3-.09-.06-.21-.16-.36-.3-.07-.07-.19-.19-.31-.36-.09-.12-.2-.28-.28-.52-.1-.29-.09-.53-.08-.65.01-.22.06-.38.08-.48.01-.04.06-.2.17-.43.13-.27.26-.47.36-.61.06-.09.25-.36.56-.69.13-.14.24-.24.47-.46.28-.27.42-.4.6-.55.3-.25.55-.4.82-.57.27-.17.63-.39,1.13-.6.06-.03.29-.11.75-.29.46-.17.69-.26.79-.29.6-.22,1.1-.37,1.58-.52.62-.19.62-.18.87-.27.52-.19.91-.39,1.13-.51.24-.12.53-.28.88-.52.3-.2.64-.44,1.02-.82.42-.43.66-.82.74-.96.1-.17.38-.67.55-1.39.05-.2.11-.53.14-.93.02-.29,0-.5-.02-.87-.05-.74-.15-1.29-.17-1.42-.02-.12-.09-.48-.22-.95-.08-.29-.17-.64-.34-1.06-.23-.6-.48-1.03-.65-1.3,0,0-.31-.53-.74-1.08-.07-.09-.14-.17-.14-.17-.06-.06-.09-.1-.14-.15-.02-.02-.12-.12-.21-.17,0,0-.04-.02-.09-.02-.03,0-.05,0-.05.01-.03.02-.03.05-.04.06,0,.03,0,.06.02.12.03.08.04.1.06.16.02.05.01.04.04.13.02.05.03.08.05.15,0,0,.01.03.06.17.04.11.13.37.17.51.1.34.13.66.14.79.03.37.01.65,0,.81-.01.14-.03.38-.1.68-.01.07-.09.39-.25.8-.11.28-.23.5-.33.67-.23.39-.45.66-.55.77-.07.09-.36.41-.82.76-.25.19-.5.33-.99.61-.45.26-.72.41-1.1.59-.52.24-.92.39-1.37.56-.31.11-.3.1-1.22.41-.6.2-.9.31-1.19.41-.77.28-1.22.47-1.44.56-.45.2-.67.31-.76.36-.43.23-.74.44-.81.49-.52.36-.86.69-1.09.91-.2.19-.59.59-1,1.17-.49.67-.78,1.24-.9,1.5-.16.33-.31.66-.44,1.13-.17.63-.2,1.13-.2,1.28,0,.23-.01.54.06.94.03.18.11.49.28.86.1.22.2.39.27.49.03.05.2.3.44.56Z"/>
  <path d="M283.57,97.52c.52-.06.9,1.25,2.77,1.9.36.12,1.68.54,3.21.15.97-.25,1.09-.58,3.06-1.6,1.17-.61,1.76-.91,2.19-1.02,2.01-.51,4.36.8,5.69,2.19,1.84,1.93,2.13,4.48,2.48,7.58.12,1.03-.06,1.15.15,2.19.04.2.09.42-.01.51-.25.21-1.38-1.01-1.59-.86-.25.19,1.34,2.02,1.68,4.71.04.34.27,2.13-.36,2.4-.17.07-.45.06-1.68-.91-1.5-1.17-2.23-2.04-2.36-1.95-.11.08.39.85,1,2.04.81,1.6,1.22,2.41,1.4,3.49.25,1.47-.05,2.62-.36,3.8-.29,1.12-.59,2.26-1.22,2.36-.44.07-.83-.4-1.45-1.13-.89-1.06-.98-1.63-1.77-2.76-.29-.42-.81-1.15-1.63-1.86-1.23-1.05-2.81-1.77-3.03-1.49-.17.21.46.96.68,1.22.78.93,1.33,1.05,2.17,1.77.99.84,1.5,1.75,1.86,2.4.5.9.87,1.56.95,2.54.12,1.5-.53,2.64-.82,3.13-.33.56-.68,1.16-1.4,1.54-.7.37-1.38.35-2.22.32-1.57-.06-2.46-.51-2.67-.18-.13.2.08.52.27.86,0,0,.72,1.27,1.22,3.22.08.31.1,1.32.14,3.35.02,1.05.01,1.61-.36,1.86-.41.28-1.03.02-1.18-.05-.73-.31-.8-.85-1.49-1.59-.87-.93-2.11-1.51-2.36-1.27-.15.15.06.61.18.86.32.68.8,1.09.91,1.18,1.01.86,1.61,2.14,1.77,2.54.46,1.15.11,2.23-.45,3.99-.48,1.49-1.18,2.76-1.81,3.9-.43.78-.72,1.21-1.09,2.08-.29.69-.45,1.23-.77,2.31-.35,1.19-.68,2.48-.86,3.22-.28,1.1-.28,1.16-.31,1.16-.49,0-1.08-16.27-1.57-29.05-.21-5.44-1.2-30.76,1.07-31.01Z"/>
  <path d="M283.62,97.52c-.52-.06-.9,1.25-2.77,1.9-.36.12-1.68.54-3.21.15-.97-.25-1.09-.58-3.06-1.6-1.17-.61-1.76-.91-2.19-1.02-2.01-.51-4.36.8-5.69,2.19-1.84,1.93-2.13,4.48-2.48,7.58-.12,1.03.06,1.15-.15,2.19-.04.2-.09.42.01.51.25.21,1.38-1.01,1.59-.86.25.19-1.34,2.02-1.68,4.71-.04.34-.27,2.13.36,2.4.17.07.45.06,1.68-.91,1.5-1.17,2.23-2.04,2.36-1.95.11.08-.39.85-1,2.04-.81,1.6-1.22,2.41-1.4,3.49-.25,1.47.05,2.62.36,3.8.29,1.12.59,2.26,1.22,2.36.44.07.83-.4,1.45-1.13.89-1.06.98-1.63,1.77-2.76.29-.42.81-1.15,1.63-1.86,1.23-1.05,2.81-1.77,3.03-1.49.17.21-.46.96-.68,1.22-.78.93-1.33,1.05-2.17,1.77-.99.84-1.5,1.75-1.86,2.4-.5.9-.87,1.56-.95,2.54-.12,1.5.53,2.64.82,3.13.33.56.68,1.16,1.4,1.54.7.37,1.38.35,2.22.32,1.57-.06,2.46-.51,2.67-.18.13.2-.08.52-.27.86,0,0-.72,1.27-1.22,3.22-.08.31-.1,1.32-.14,3.35-.02,1.05-.01,1.61.36,1.86.41.28,1.03.02,1.18-.05.73-.31.8-.85,1.49-1.59.87-.93,2.11-1.51,2.36-1.27.15.15-.06.61-.18.86-.32.68-.8,1.09-.91,1.18-1.01.86-1.61,2.14-1.77,2.54-.46,1.15-.11,2.23.45,3.99.48,1.49,1.18,2.76,1.81,3.9.43.78.72,1.21,1.09,2.08.29.69.45,1.23.77,2.31.35,1.19.68,2.48.86,3.22.28,1.1.28,1.16.31,1.16.49,0,1.08-16.27,1.57-29.05.21-5.44,1.2-30.76-1.07-31.01Z"/>
  <ellipse cx="283.59" cy="157.47" rx=".52" ry=".32"/>
  <path d="M283.29,153.28c.37-.02.43-.05.49-.04.2.05.28.46.34,1.22.08,1.07-.03.8-.04,2.31,0,.24,0,.6-.19.69-.1.05-.23,0-.46-.07-.16-.05-.25-.08-.31-.16-.09-.13-.04-.3-.02-.35.12-.47-.23-1.01-.3-2.22-.01-.24-.05-1.25.27-1.36.03,0,.04,0,.23-.01Z"/>
  <path d="M161.32,130.11s-4.98,4.36-4.74,6.82c.06.57.3,1.05.3,1.05.39.78,1.06,1.19,1.51,1.43,2.78,1.51,5.97,1.95,5.97,1.95,3.1.43,5.5.54,6.02.57,3.95.17,6.69.2,8.22.23,4.03.08,7.42.14,11.09.67,1.43.21,6.57,1.01,12.8,3.62,4.84,2.03,7.76,3.25,10.75,6.27,3.37,3.4,4.92,7.17,5.63,8.93,1.2,2.99,1.64,5.52,1.82,6.78.48,3.45.21,6.12.12,6.88-.23,1.96-.66,3.62-.84,4.32-.28,1.05-.57,1.94-.76,2.52-.48,1.41-1.03,2.73-1.28,3.31-.24.57-.46,1.14-.7,1.71,0,0-.25.6-.6,1.68-.22.7-.31,1.07-.12,1.36.15.22.4.28.46.3.58.14,1.16-.35,1.42-.57,3.31-2.84,4.24-4.01,4.24-4.01,1.16-1.46,1.75-2.19,2.64-3.45,1-1.41,2.28-3.24,3.68-5.8,1.6-2.92,2.51-5.27,3.08-6.76.19-.49,1.67-4.39,2.41-8.29.48-2.56.36-3.6.28-4.08-.02-.11-.09-.67-.24-1.79-.13-.97-.19-1.47-.02-2.01.06-.2.2-.64.6-1.03.42-.41.88-.55,1.44-.7.44-.12.76-.16,1.49-.23,1.76-.17,1.78-.14,2.21-.21.15-.02,1.19-.18,2.31-.65,1.12-.47,1.91-1.07,2.6-1.66,2.13-1.8,3.7-3.7,4.26-4.39,1.24-1.53,2.6-3.2,4.12-5.7.5-.82,2.06-3.44,3.52-7.12.3-.75,1.17-3,1.95-6.01.37-1.42.57-2.45.92-4.18.56-2.8.87-4.92,1.07-6.33.37-2.55.48-3.81.52-4.28.21-2.53.13-3.6.1-3.93-.11-1.23-.21-2.37-.83-3.71-.69-1.5-1.65-2.43-2.13-2.9-.66-.63-1.46-1.23-2.59-1.82-2.89-1.53-5.91-1.99-7.33-2.16-.86-.1-4.28-.47-9.99.41-3.07.48-5.29,1.08-7.81,1.78-7.74,2.15-11.6,3.22-14.86,4.28-10.39,3.38-18.19,6.7-21.73,8.22-2.55,1.09-5.77,2.48-9.5,4.22-3.01,1.41-5.09,2.38-7.89,3.88-2.42,1.29-5.72,3.07-9.69,5.83,0,0-2.59,1.8-5.9,4.7ZM229.49,110.49c1.16.09,5.24.45,8.79,3.53,1.82,1.58,2.78,3.25,3.38,4.32.52.92,1.39,2.65,1.91,4.99.25,1.13.59,2.68.43,4.69-.18,2.2-.85,3.78-1.27,4.75-1.43,3.29-3.51,5.29-4.48,6.2-1.27,1.19-3.15,2.92-6.14,3.93-1.48.5-3.51,1.18-5.89.5-1.77-.51-2.91-1.53-3.38-1.97-1.61-1.48-2.25-3.15-2.62-4.13-.54-1.41-.68-2.56-.71-2.84-.16-1.41-.01-2.62.05-3.09.16-1.31.41-1.79.32-2.95-.07-.86-.26-1.32-.38-1.58-.31-.63-.71-1-1.11-1.36-.13-.12-.73-.65-1.72-1.13-.73-.36-1.31-.51-2.05-.7-.52-.13-1.59-.38-3.03-.5-.89-.07-1.7-.14-2.8,0-.45.05-1.31.16-2.3.51-.82.29-1.24.43-1.35.49-.44.23-.71.45-1.06.37-.2-.05-.43-.19-.51-.41-.14-.38.2-.82.39-1.06,1.32-1.65,2.71-2.73,2.71-2.73,2.26-1.75,1.79-1.45,2.61-2.05,1.4-1.02,2.52-1.72,3.25-2.18,1.01-.63,1.86-1.17,2.96-1.74,1.94-1.02,3.45-1.56,5.61-2.32,2.14-.76,3.23-1.14,4.58-1.35,1.91-.3,3.41-.2,3.81-.17Z"/>
  <path d="M177.57,145.19c2.85-.68,6.73-1.6,11.59-1.6,2,0,4.23.15,5.34.23,2.09.15,3.14.22,4.31.42,1.09.19,3.56.63,6.35,2.03,1.07.54,3.84,2.05,6.43,5.04,1.02,1.18,3.5,4.11,4.59,8.7,1.35,5.75-.37,10.41-.95,11.93-.9,2.34-2.1,4.13-2.95,5.41-.61.91-1.99,2.89-4.15,5.09-.77.78-1.83,1.86-3.41,3.06-1.86,1.41-3.44,2.23-4.61,2.83,0,0-3.12,1.6-5.72,2.36-.46.14-.81.2-1.32.29-.12.02-.46.08-.92.07-.6,0-.77-.12-.86-.22-.03-.03-.15-.18-.15-.37,0-.2.14-.34.39-.58.46-.43.75-.65.75-.65.3-.23.58-.48.88-.71,0,0,.72-.55,1.59-1.3,1.16-1,2.11-1.82,2.96-3.13.51-.8.77-1.44.82-1.57.22-.56.55-1.43.55-2.59,0-1.08-.3-1.89-.49-2.39-.38-1-.86-1.65-1.46-2.45-.5-.67-1.44-1.89-3.01-3.08-.51-.39-1.17-.83-2.86-1.68-2.9-1.46-5.29-2.34-6.02-2.6-.53-.19-1.84-.66-6.05-1.87-3.75-1.08-5.62-1.63-7.51-2.07-3.42-.8-6.03-1.19-8.35-1.53-4.26-.63-7.72-.88-10.69-1.1s-4.3-.32-5.33-.37c-.18,0-1.06-.07-2.82-.18-.4-.03-1.24-.08-2.3-.2,0,0-.71-.08-1.71-.27,0,0-.37-.07-.93-.24-.36-.11-.51-.17-.65-.27-.2-.13-.51-.33-.51-.61,0-.23.21-.41.36-.54.12-.1.24-.16.47-.28,0,0,.22-.11.42-.19,1.54-.62,5.16-1.29,5.16-1.29.53-.1,1.54-.39,3.57-.96,1.23-.35,3.27-.93,5.79-1.79,3.13-1.07,5.5-2.06,6.26-2.38,2.8-1.18,3.25-1.55,6.33-2.81.94-.39,2.24-.92,3.9-1.51,3.41-1.21,6.12-1.87,6.91-2.06Z"/>
  <path d="M278.18,151.51s-1.25-3.78-2.67-4.21c-.33-.1-.65-.08-.65-.08-.52.04-.91.31-1.15.5-1.48,1.19-2.48,2.85-2.48,2.85-.96,1.62-1.59,2.92-1.72,3.2-1.02,2.15-1.67,3.65-2.05,4.5-.98,2.21-1.81,4.07-2.96,5.98-.45.74-2.09,3.4-5,6.24-2.25,2.21-3.61,3.54-5.98,4.49-2.67,1.07-5.12,1.05-6.26,1.03-1.94-.03-3.44-.38-4.18-.58-2.02-.54-3.44-1.31-3.83-1.54-1.03-.58-1.85-1.21-2.2-1.48-.52-.4-.94-.77-1.22-1.01-.67-.6-1.27-1.21-1.54-1.48-.26-.26-.52-.52-.78-.79,0,0-.27-.28-.79-.72-.34-.29-.52-.42-.73-.38-.16.03-.25.15-.27.19-.21.28-.08.72-.02.92.8,2.5,1.23,3.28,1.23,3.28.54.98.8,1.48,1.29,2.27.55.88,1.26,2.02,2.35,3.39,1.24,1.56,2.33,2.62,3.02,3.29.23.22,2.04,1.95,4.03,3.27,1.3.86,1.91,1.04,2.19,1.1.07.02.39.1,1.05.28.57.15.86.24,1.12.46.1.08.31.26.43.57.13.33.1.61.05.96-.04.27-.09.46-.22.88-.32,1.01-.34,1.02-.4,1.27-.02.09-.18.7-.18,1.43,0,.73.15,1.3.31,1.83.5,1.6,1.18,2.91,1.43,3.39.56,1.05,1.16,2.18,2.19,3.61.34.47,1.42,1.94,3.12,3.61.35.34,1.39,1.35,2.87,2.48.7.53,1.22.89,2.1,1.48,1.42.96,2.52,1.63,3.25,2.07,1.33.8,2,1.16,2.24,1.29,1.35.71,1.96.91,2.15.97.71.23,1.36.44,2.25.41.99-.03,1.73-.34,2.1-.51.51-.22,1.02-.52,1.62-1.01,1.52-1.25,2.48-2.81,2.91-3.55.26-.45,1.26-2.26,2.11-5.63.45-1.81.64-3.18.84-4.74.62-4.78.93-7.18,1.1-9.23.56-6.54.54-11.63.52-13.95-.01-1.66-.02-3.77-.12-6.24-.08-1.99-.13-3.37-.3-5.27-.15-1.64-.36-3.88-.97-6.73,0,0-.39-1.85-1.22-4.36ZM273.12,193.83c-.32.62-1.47,2.79-4.01,4.04-1.3.64-2.45.78-3.18.86-.63.07-1.79.15-3.21-.11-.69-.12-1.62-.3-2.7-.86-1.18-.61-1.9-1.35-2.33-1.81-1.49-1.56-2.11-3.18-2.39-3.93-.36-.98-.88-2.42-.74-4.32.07-.94.16-2.22,1.1-3.37.69-.86,1.53-1.25,1.88-1.41,1.19-.54,2.27-.51,2.9-.49.91.03,1.57.22,1.74.27.82.24,1.45.61,1.7.75.69.4.89.64,1.56.87.49.16.79.17.97.16.42-.02.72-.16,1.02-.3.1-.05.53-.25,1.03-.69.37-.32.59-.61.87-.97.19-.26.59-.79.98-1.56.25-.48.47-.91.65-1.55.07-.26.21-.76.25-1.39.03-.52.05-.78.04-.86-.02-.3-.08-.5.04-.67.07-.1.21-.19.35-.19.24,0,.41.3.5.46.61,1.12.88,2.13.88,2.13.44,1.66.38,1.33.52,1.92.24,1.01.36,1.8.45,2.31.11.71.21,1.31.27,2.05.11,1.31.06,2.27-.02,3.65-.08,1.36-.12,2.06-.32,2.85-.28,1.13-.68,1.93-.79,2.15Z"/>
  <path d="M256.94,147.43c.68.15,1.79.39,3.01-.07.59-.22,1.01-.53,1.29-.73.28-.21.79-.59,1.27-1.24.41-.56.6-1.07.83-1.66.2-.53.35-.93.47-1.5.08-.38.22-.75.32-1.13.06-.24.12-.48.29-.53.16-.05.34.08.4.13.7.54,1.03,2.39,1.03,2.39.24,1.34.36,2.01.44,3.13.06.81.08,1.58.07,2.33-.02,2.4-.31,4.23-.39,4.74-.13.77-.36,2.13-.91,3.85-.18.55-.8,2.4-2.04,4.65-.49.88-1.09,1.96-2.11,3.25-1.16,1.45-2.27,2.44-2.88,2.95-.63.53-1.86,1.47-3.58,2.37-.8.41-2.18,1.07-4.01,1.57-.55.15-2.51.67-5.15.74-.77.02-3.35.06-6.52-.74,0,0-1.78-.45-4.52-1.62-.57-.24-.98-.47-1.15-.57-.08-.04-.36-.21-.72-.46-.17-.12-.33-.25-.64-.5-.3-.24-.44-.37-.48-.56,0-.05-.03-.18.04-.3,0-.02.06-.09.17-.14.24-.11.53,0,.81.08.04.01.29.07.79.17.38.08.65.11,1.14.15.71.06,1.46.12,2.35.09,1.62-.06,2.96-.4,3.82-.67.71-.22,1.68-.59,2.75-1.2.38-.22,1.98-1.15,3.61-2.89.34-.36.78-.84,1.27-1.55.16-.24.85-1.25,1.47-2.92.66-1.77.85-3.21,1-4.41.06-.48.22-1.82.21-3.56,0-2.38-.01-4.06-.13-5.12,0,0-.07-.67.1-1.53.04-.2.08-.31.17-.53.09-.23.15-.3.22-.36.15-.12.34-.11.38-.1.25.01.43.2.97.89.42.54.45.61.68.87.15.17.37.43.67.69.1.09.48.42,1.2.8.43.23,1.08.56,1.99.76Z"/>
  <path d="M225.07,200.52c.46.52,1.23,1.36,1.44,2.64.1.62.04,1.14,0,1.48-.04.34-.12.98-.45,1.72-.29.64-.63,1.05-1.03,1.54-.36.44-.64.77-1.07,1.15-.29.26-.54.57-.82.84-.18.18-.35.34-.32.52.03.16.24.25.31.28.81.34,2.59-.29,2.59-.29,1.28-.46,1.92-.68,2.93-1.17.73-.35,1.41-.72,2.06-1.09,2.07-1.21,3.52-2.37,3.92-2.7.6-.49,1.67-1.37,2.89-2.71.39-.43,1.69-1.89,3.02-4.08.52-.86,1.16-1.92,1.77-3.45.69-1.73.99-3.18,1.13-3.96.14-.81.36-2.34.28-4.28-.04-.9-.16-2.43-.63-4.26-.14-.55-.67-2.51-1.92-4.84-.36-.68-1.62-2.94-3.88-5.29,0,0-1.28-1.32-3.65-3.12-.5-.37-.89-.61-1.07-.72-.08-.04-.36-.21-.76-.4-.19-.09-.38-.16-.75-.31-.36-.14-.54-.2-.72-.13-.04.02-.17.06-.24.18,0,.02-.05.09-.03.21.03.26.27.46.47.66.03.03.2.22.54.6.26.29.41.51.69.92.4.58.83,1.21,1.25,2,.75,1.43,1.13,2.77,1.32,3.65.16.72.32,1.75.32,2.99,0,.44-.01,2.29-.71,4.57-.15.48-.34,1.09-.71,1.87-.13.26-.67,1.36-1.81,2.73-1.21,1.45-2.36,2.33-3.33,3.06-.39.29-1.47,1.09-2.98,1.95-2.07,1.17-3.53,2.01-4.51,2.44,0,0-.61.27-1.28.84-.15.13-.23.23-.37.41-.15.2-.19.28-.2.37-.02.19.08.35.1.38.14.21.39.27,1.26.4.68.1.75.09,1.09.16.22.04.56.11.93.24.12.04.61.21,1.29.64.41.26,1.03.66,1.65,1.35Z"/>
  <path d="M268.24,128.85c-.38-.34-.89-.79-1.64-1.15-.41-.2-1.2-.57-2.28-.56-.98,0-1.7.32-2.17.53-.83.37-1.37.82-1.79,1.18-.16.13-.73.62-1.36,1.4-.35.44-.91,1.14-1.37,2.18-.28.65-.71,1.62-.69,2.94,0,.68.02,1.59.63,2.49.7,1.03,1.73,1.4,2.1,1.53.78.28,1.46.27,1.82.26.68-.02,1.19-.16,1.67-.28.49-.13.84-.23,1.28-.48.26-.15.68-.39,1.05-.84.35-.43.59-.94.59-.94.17-.35.18-.49.36-.64.28-.23.65-.23.81-.23.31,0,.54.1.88.25.07.03.3.13.73.39.47.28.81.49,1.2.86.14.13.35.33.59.65.27.37.46.74.54.9.08.17.17.3.34.57.11.17.2.3.33.31.1,0,.18-.06.2-.07.19-.15.18-.48.16-.74-.03-.38-.07-.84-.13-1.38-.03-.25-.08-.61-.15-1.04-.11-.65-.2-1.19-.36-1.82-.14-.53-.27-.89-.47-1.42-.52-1.39-1.01-2.33-1.14-2.57-.48-.89-.77-1.26-.92-1.44-.33-.39-.62-.66-.81-.83Z"/>
  <path d="M276.99,90.13c.28-.03.66-.07,1.12,0,.25.04.73.13,1.22.48.45.32.67.7.82.95.26.44.36.82.44,1.12.03.11.13.52.17,1.08.02.31.05.82-.08,1.44-.08.39-.2.97-.63,1.57-.22.31-.52.72-1.09.94-.65.25-1.25.08-1.46.02-.45-.13-.75-.35-.92-.47-.31-.23-.5-.46-.67-.67-.18-.22-.31-.38-.43-.63-.07-.15-.18-.4-.21-.72-.02-.31.03-.62.03-.62.04-.21.08-.28.04-.41-.05-.2-.22-.31-.3-.37-.14-.1-.28-.13-.48-.17-.04,0-.18-.04-.46-.06-.31-.02-.53-.04-.83,0-.1.01-.27.04-.48.11-.24.08-.45.19-.54.24-.09.05-.17.08-.34.15-.1.04-.19.07-.25.03-.05-.03-.07-.08-.07-.1-.04-.13.08-.28.17-.39.13-.16.3-.36.51-.59.1-.11.24-.25.41-.43.26-.26.47-.48.75-.72.23-.2.41-.32.67-.5.69-.47,1.21-.74,1.35-.81.51-.25.76-.33.89-.36.28-.07.5-.1.64-.12Z"/>
  <path d="M279.31,90.43c-.56.59-1.23.89-1.54,1.02-.36.15-.63.23-.96.32-.09.02-.82.22-1.62.28-.19.01-.09,0-.81-.02,0,0-.09,0-.26-.05-.01,0-.12-.03-.19-.1-.02-.02-.03-.04-.04-.07,0-.02,0-.05.02-.07.06-.1.25-.21.25-.21.14-.08,0,0,.28-.18.14-.08.18-.1.25-.15.12-.07.28-.16.46-.3.09-.06.21-.16.36-.3.07-.07.19-.19.31-.36.09-.12.2-.28.28-.52.1-.29.09-.53.08-.65-.01-.22-.06-.38-.08-.48-.01-.04-.06-.2-.17-.43-.13-.27-.26-.47-.36-.61-.06-.09-.25-.36-.56-.69-.13-.14-.24-.24-.47-.46-.28-.27-.42-.4-.6-.55-.3-.25-.55-.4-.82-.57-.27-.17-.63-.39-1.13-.6-.06-.03-.29-.11-.75-.29-.46-.17-.69-.26-.79-.29-.6-.22-1.1-.37-1.58-.52-.62-.19-.62-.18-.87-.27-.52-.19-.91-.39-1.13-.51-.24-.12-.53-.28-.88-.52-.3-.2-.64-.44-1.02-.82-.42-.43-.66-.82-.74-.96-.1-.17-.38-.67-.55-1.39-.05-.2-.11-.53-.14-.93-.02-.29,0-.5.02-.87.05-.74.15-1.29.17-1.42.02-.12.09-.48.22-.95.08-.29.17-.64.34-1.06.23-.6.48-1.03.65-1.3,0,0,.31-.53.74-1.08.07-.09.14-.17.14-.17.06-.06.09-.1.14-.15.02-.02.12-.12.21-.17,0,0,.04-.02.09-.02.03,0,.05,0,.05.01.03.02.03.05.04.06,0,.03,0,.06-.02.12-.03.08-.04.1-.06.16-.02.05-.01.04-.04.13-.02.05-.03.08-.05.15,0,0-.01.03-.06.17-.04.11-.13.37-.17.51-.1.34-.13.66-.14.79-.03.37-.01.65,0,.81.01.14.03.38.1.68.01.07.09.39.25.8.11.28.23.5.33.67.23.39.45.66.55.77.07.09.36.41.82.76.25.19.5.33.99.61.45.26.72.41,1.1.59.52.24.92.39,1.37.56.31.11.3.1,1.22.41.6.2.9.31,1.19.41.77.28,1.22.47,1.44.56.45.2.67.31.76.36.43.23.74.44.81.49.52.36.86.69,1.09.91.2.19.59.59,1,1.17.49.67.78,1.24.9,1.5.16.33.31.66.44,1.13.17.63.2,1.13.2,1.28,0,.23.01.54-.06.94-.03.18-.11.49-.28.86-.1.22-.2.39-.27.49-.03.05-.2.3-.44.56Z"/>
</svg>