<?xml version="1.0" encoding="UTF-8" standalone="no"?>
<svg
   id="Ebene_3"
   data-name="Ebene 3"
   viewBox="0 0 842.16 595.44"
   version="1.1"
   sodipodi:docname="silvatica-logo.svg"
   inkscape:export-filename="silvatica-black.svg"
   inkscape:export-xdpi="96"
   inkscape:export-ydpi="96"
   inkscape:version="1.4 (e7c3feb100, 2024-10-09)"
   xmlns:inkscape="http://www.inkscape.org/namespaces/inkscape"
   xmlns:sodipodi="http://sodipodi.sourceforge.net/DTD/sodipodi-0.dtd"
   xmlns="http://www.w3.org/2000/svg"
   xmlns:svg="http://www.w3.org/2000/svg">
  <defs
     id="defs11" />
  <sodipodi:namedview
     id="namedview11"
     pagecolor="#ffffff"
     bordercolor="#000000"
     borderopacity="0.25"
     inkscape:showpageshadow="2"
     inkscape:pageopacity="0.0"
     inkscape:pagecheckerboard="0"
     inkscape:deskcolor="#d1d1d1"
     inkscape:zoom="0.53552771"
     inkscape:cx="420.14633"
     inkscape:cy="296.90341"
     inkscape:window-width="1460"
     inkscape:window-height="1394"
     inkscape:window-x="0"
     inkscape:window-y="0"
     inkscape:window-maximized="0"
     inkscape:current-layer="Ebene_3" />
  <path
     d="M666.09,282.51s6.37-1.81,8.3-.26c.45.36.72.82.72.82.44.75.42,1.54.38,2.04-.25,3.15-1.61,6.08-1.61,6.08-1.33,2.84-2.54,4.91-2.8,5.36-2.01,3.41-3.47,5.72-4.28,7.02-2.13,3.42-3.92,6.3-5.47,9.67-.6,1.31-2.73,6.06-3.93,12.71-.93,5.17-1.5,8.28-.59,12.43,1.02,4.68,3.33,8.03,4.43,9.59,1.85,2.64,3.74,4.38,4.7,5.21,2.63,2.28,5.02,3.51,5.7,3.84,1.77.88,3.39,1.42,4.09,1.65,1.03.34,1.94.58,2.53.73,1.45.36,2.85.62,3.48.73.61.11,1.21.23,1.82.34,0,0,.63.12,1.74.42.71.19,1.07.32,1.2.64.1.24.02.49,0,.55-.19.56-.92.79-1.25.88-4.19,1.23-5.67,1.38-5.67,1.38-1.86.18-2.78.27-4.33.33-1.73.07-3.96.15-6.86-.07-3.32-.25-5.78-.76-7.35-1.09-.52-.11-4.6-.99-8.27-2.49-2.41-.99-3.21-1.66-3.57-1.99-.08-.08-.51-.44-1.37-1.18-.74-.64-1.13-.96-1.67-1.11-.2-.06-.65-.18-1.19-.06-.57.12-.94.44-1.37.82-.34.3-.55.55-1.01,1.13-1.1,1.38-1.09,1.41-1.37,1.74-.1.11-.8.9-1.8,1.59-1,.68-1.93,1.02-2.81,1.28-2.67.81-5.11,1.09-6,1.19-1.96.21-4.09.44-7.02.36-.96-.03-4.01-.14-7.89-.92-.79-.16-3.15-.65-6.11-1.64-1.39-.46-2.36-.85-4.01-1.51-2.65-1.06-4.6-1.95-5.89-2.54-2.35-1.08-3.46-1.67-3.87-1.89-2.24-1.2-3.09-1.85-3.35-2.06-.97-.76-1.87-1.46-2.66-2.72-.88-1.4-1.14-2.7-1.27-3.37-.17-.9-.23-1.89-.12-3.17.3-3.26,1.55-6.04,2.18-7.33.38-.78,1.93-3.85,5.78-8.16,2.07-2.32,3.79-3.85,5.74-5.58,6.01-5.32,9.02-7.98,11.68-10.14,8.49-6.88,15.52-11.61,18.73-13.75,2.3-1.54,5.22-3.49,8.71-5.67,2.82-1.76,4.77-2.97,7.54-4.51,2.4-1.33,5.69-3.13,10.17-4.95,0,0,2.92-1.19,7.15-2.39ZM612.53,329.02c-.56,1.02-2.48,4.64-1.82,9.3.34,2.38,1.21,4.1,1.78,5.19.49.93,1.47,2.6,3.14,4.32.81.83,1.92,1.95,3.71,2.91,1.94,1.05,3.63,1.35,4.68,1.52,3.54.59,6.34-.07,7.64-.39,1.69-.41,4.16-1.05,6.64-3.01,1.23-.97,2.9-2.3,3.62-4.67.54-1.76.29-3.27.19-3.9-.37-2.15-1.42-3.6-2.04-4.44-.89-1.22-1.77-1.96-2-2.14-1.1-.9-2.19-1.44-2.62-1.64-1.19-.58-1.72-.63-2.65-1.34-.68-.52-.97-.93-1.12-1.18-.36-.61-.45-1.14-.54-1.68-.03-.18-.15-.96-.02-2.06.1-.81.29-1.38.53-2.1.17-.51.54-1.55,1.23-2.81.42-.79.81-1.5,1.52-2.35.29-.35.85-1.01,1.68-1.65.69-.53,1.03-.8,1.15-.87.43-.25.76-.35.89-.69.07-.2.07-.47-.06-.65-.24-.32-.8-.28-1.1-.25-2.11.21-3.76.78-3.76.78-2.69.94-2.19.71-3.14,1.08-1.62.62-2.81,1.18-3.6,1.54-1.08.5-2,.93-3.08,1.54-1.91,1.07-3.18,2.04-5.01,3.44-1.8,1.38-2.72,2.09-3.63,3.11-1.29,1.44-2.02,2.75-2.22,3.1Z"
     id="path1"
     inkscape:export-filename="silvatica-black.svg"
     inkscape:export-xdpi="96"
     inkscape:export-ydpi="96" />
  <path
     d="M230.56,242.1c-4.15.8-10.18,1.99-17.87,4.98-7.31,2.84-16.42,6.38-24.99,14.73-5.89,5.75-8.48,10.8-9.15,12.14-2.19,4.44-3.17,8.47-3.63,11.2-1.31,7.7-.02,13.68,1.32,19.86.23,1.08,1.06,4.81,2.96,9.38.83,2,3.5,8.42,5.23,8.08.9-.18.67-2.04,2.46-5.79.55-1.15,1.32-2.78,2.7-4.4,2.7-3.18,6.04-4.4,7.03-4.73,3.35-1.11,6.14-.78,7.75-.58,5.58.72,9.21,3.65,9.92,4.24,1.35,1.12,4.56,3.87,5.83,8.56,1.38,5.1-.38,9.4-1.66,12.53-2.14,5.22-5.42,8.36-7.01,9.85-1.3,1.22-3.43,3.18-6.79,4.76-3.92,1.85-7.31,2.14-9.69,2.33-5.01.39-8.87-.47-10.99-.96-2.73-.63-4.84-1.46-9.06-3.1-3.75-1.47-5.63-2.2-7.81-3.18-3.61-1.63-5.5-2.72-5.92-2.21-.42.52.94,2.35,1.52,3.04.5.59,1.03,1.09,2.33,2.05,1.76,1.31,3.19,2.2,3.56,2.43,1.5.93,3.06,1.9,5.15,3,1.45.76,4.9,2.54,9.64,4.18,7.84,2.73,14.22,3.53,15.53,3.68,3.98.48,8.05.96,13.45.23,4.63-.63,8.14-1.87,10.71-2.79,2.2-.79,5.46-1.98,9.37-4.29,4.53-2.68,7.64-5.49,9.14-6.95,2.42-2.35,6.13-6.01,8.95-11.94,2.2-4.63,2.87-8.55,3.36-11.57.59-3.63.99-8.62.23-14.41-.46-3.57-1.17-5.92-2.56-10.59,0,0-.99-3.31-3.22-7.55,0,0-.5-.95-2.52-3.22-.49-.55-1.18-1.29-2.05-1.26-.09,0-.44.02-.79.23-.6.37-.78,1.07-.84,1.31,0,0-.15.57-1.73,3.87-.86,1.8-2.2,2.85-3.08,3.54-1.72,1.35-3.34,1.85-5.22,2.42-1.08.33-2.8.85-5.13.93-.87.03-2.54.08-4.62-.42-3.6-.87-5.92-2.79-6.62-3.4-.77-.67-2.06-1.94-3.17-3.87-.94-1.63-1.31-2.98-1.77-4.71-.96-3.59-1.06-6.46-1.07-7.04-.11-3.99.63-7.07,1.03-8.49.49-1.76,1.55-4.89,3.82-8.25,2.35-3.47,4.82-5.47,7.18-7.37.92-.74,4.23-3.35,9.05-5.74.88-.44,2.97-1.36,7.14-3.22,4.88-2.17,5.81-2.55,5.74-2.82-.17-.74-7.37.17-13.14,1.28Z"
     id="path2" />
  <path
     d="M283.62,263.3c1.16,0,5.26.06,9.03,2.87,1.93,1.44,3.01,3.03,3.69,4.06.58.88,1.58,2.54,2.28,4.83.34,1.11.79,2.62.78,4.65-.01,2.2-.56,3.83-.91,4.83-1.18,3.39-3.11,5.53-4.01,6.52-1.17,1.28-2.92,3.15-5.84,4.38-1.44.61-3.41,1.44-5.83.94-1.8-.38-3.01-1.31-3.51-1.71-1.71-1.36-2.47-2.98-2.92-3.92-.64-1.37-.87-2.5-.92-2.78-.26-1.39-.21-2.61-.18-3.09.07-1.32.28-1.81.1-2.97-.13-.85-.35-1.3-.5-1.55-.36-.61-.78-.94-1.21-1.28-.14-.11-.77-.59-1.8-1-.76-.3-1.35-.41-2.1-.55-.53-.09-1.62-.27-3.05-.27-.89,0-1.71,0-2.79.2-.44.09-1.29.26-2.26.68-.8.35-1.2.52-1.31.59-.42.26-.68.5-1.03.45-.21-.03-.44-.16-.54-.37-.17-.36.14-.83.31-1.09,1.19-1.75,2.5-2.92,2.5-2.92,2.12-1.91,1.68-1.58,2.45-2.24,1.32-1.12,2.38-1.9,3.08-2.42.96-.71,1.77-1.3,2.83-1.96,1.86-1.16,3.32-1.81,5.42-2.74,2.07-.91,3.14-1.38,4.47-1.69,1.88-.44,3.38-.46,3.78-.46Z"
     id="path3" />
  <path
     d="M280.9,304.76c-1.43-.15-3.78-.4-5.88-2.07-1.02-.81-1.65-1.7-2.07-2.28-.42-.59-1.18-1.67-1.7-3.27-.44-1.38-.49-2.49-.55-3.81-.05-1.17-.09-2.07.05-3.26.09-.81.04-1.62.09-2.43.03-.52.07-1.02-.23-1.24-.28-.21-.72-.05-.87,0-1.72.6-3.58,4.04-3.58,4.04-1.34,2.48-2.01,3.73-2.89,5.88-.64,1.55-1.18,3.06-1.65,4.55-1.52,4.74-2.13,8.54-2.3,9.6-.25,1.59-.67,4.42-.69,8.17,0,1.2.01,5.25,1.01,10.47.39,2.05.88,4.56,2.07,7.76,1.34,3.61,2.89,6.27,3.77,7.67.91,1.45,2.7,4.11,5.51,6.98,1.3,1.33,3.61,3.52,6.89,5.69.98.65,4.5,2.93,9.67,4.79,1.51.54,6.57,2.28,13.32,2.75,0,0,3.81.26,9.96-.27,1.28-.11,2.23-.3,2.65-.39.18-.04.85-.18,1.72-.44.41-.12.8-.27,1.59-.57.75-.28,1.11-.44,1.3-.8.05-.09.18-.33.11-.61,0-.04-.06-.21-.24-.37-.4-.37-1.05-.34-1.64-.36-.09,0-.61-.06-1.67-.17-.8-.08-1.35-.21-2.34-.45-1.43-.34-2.96-.7-4.7-1.34-3.15-1.16-5.58-2.7-7.09-3.79-1.24-.9-2.92-2.26-4.64-4.15-.61-.67-3.16-3.54-5.24-8.02-.43-.94-.99-2.16-1.5-3.87-.17-.58-.86-3.02-1.01-6.71-.15-3.9.4-6.87.88-9.34.19-.99.75-3.72,1.88-7.15,1.55-4.68,2.65-7.99,3.56-10.01,0,0,.57-1.27.8-3.07.05-.41.04-.66,0-1.16-.04-.52-.1-.7-.2-.84-.23-.33-.6-.43-.68-.45-.51-.14-.98.11-2.49,1.13-1.18.79-1.29.91-1.9,1.27-.4.24-1.01.61-1.77.93-.25.11-1.22.52-2.89.8-1,.17-2.49.41-4.41.21Z"
     id="path4" />
  <path
     d="M294.51,238.44c-4.68,1.15-8.19,3.73-9.8,4.93-1.84,1.38-3.02,2.55-4.47,4-.38.38-3.55,3.57-6.2,7.54-.62.93-.25.46-2.27,4.2,0,0-.25.47-.54,1.49-.02.07-.2.73-.04,1.3.04.14.1.29.24.39.11.08.24.11.4.11.7-.01,1.82-.66,1.82-.66.81-.47.01.04,1.73-.94.84-.48,1.04-.6,1.5-.87.7-.4,1.65-.95,2.86-1.48.58-.26,1.42-.62,2.59-.95.58-.17,1.53-.43,2.77-.55.89-.09,2.05-.2,3.51.09,1.77.36,2.99,1.12,3.6,1.51,1.1.7,1.81,1.42,2.23,1.84.17.17.84.86,1.71,2.1,1.03,1.47,1.63,2.7,2.09,3.66.28.58,1.12,2.37,1.91,4.89.33,1.04.55,1.95.98,3.75.54,2.24.82,3.35,1.05,4.71.39,2.3.46,4.01.52,5.88.07,1.91.15,4.4-.22,7.57-.05.42-.28,1.85-.74,4.71-.46,2.86-.69,4.3-.8,4.92-.65,3.75-1.32,6.77-1.97,9.66-.85,3.78-.91,3.71-1.17,5.26-.55,3.26-.65,5.85-.71,7.32-.06,1.6-.13,3.52.06,6.06.16,2.15.35,4.59,1.23,7.63.98,3.39,2.3,5.8,2.77,6.62.56.99,2.32,3.93,5.51,6.92.9.85,2.39,2.14,4.4,3.45,1.47.95,2.55,1.47,4.52,2.43,3.97,1.93,7.08,3.02,7.84,3.29.68.24,2.73.94,5.5,1.66,1.74.46,3.78.99,6.44,1.38,3.77.56,6.7.53,8.6.5,0,0,3.61-.05,7.73-.65.65-.09,1.28-.23,1.28-.23.48-.1.8-.19,1.16-.28.14-.04.95-.26,1.5-.6.05-.03.26-.16.39-.4.1-.16.1-.27.09-.3,0-.19-.14-.31-.18-.35-.15-.15-.32-.18-.67-.24-.53-.08-.65-.07-1-.13-.28-.05-.24-.06-.76-.16-.33-.07-.48-.09-.95-.17,0,0-.2-.03-1.04-.19-.68-.12-2.27-.44-3.14-.65-2.06-.49-3.76-1.25-4.46-1.57-1.99-.9-3.38-1.83-4.19-2.37-.69-.46-1.86-1.25-3.23-2.49-.31-.28-1.75-1.59-3.35-3.63-1.09-1.39-1.9-2.67-2.49-3.69-1.33-2.31-2.05-4.26-2.34-5.08-.22-.64-1.05-3.06-1.48-6.46-.23-1.85-.23-3.56-.22-6.89.01-3.08.02-4.88.22-7.39.26-3.38.69-5.9,1.17-8.71.33-1.96.36-1.86,1.45-7.48.71-3.69,1.07-5.53,1.39-7.36.83-4.77,1.17-7.67,1.32-9.05.32-2.92.38-4.37.4-4.96.09-2.89-.08-5.07-.12-5.6-.31-3.7-1.03-6.46-1.51-8.28-.42-1.59-1.34-4.76-3.05-8.59-2-4.48-4.11-7.66-5.08-9.05-1.23-1.78-2.47-3.55-4.52-5.61-2.73-2.75-5.21-4.31-6.01-4.8-1.16-.71-2.73-1.66-5.02-2.43-1.01-.34-2.86-.89-5.23-1.11-1.43-.13-2.59-.1-3.32-.06-.34.02-2.13.13-4.19.63Z"
     id="path5" />
  <path
     d="M373.48,292.67c-2.95,2.1-4.6,4.47-6.02,6.55-1.87,2.74-2.88,5.06-3.45,6.37-1.73,4.01-2.42,7.36-2.82,9.33-.46,2.27-.61,3.87-.65,4.23-.11,1.2-.33,3.55-.06,6.22.16,1.58.35,2.76.35,2.76.12.74.22,1.17.32,2.05.08.69.07.8.16,1.31.03.17.07.47.15,1.06.02.16,0-.05,0,.67,0,.14,0,.25-.05.28-.05.03-.13-.01-.35-.16-.21-.13-.31-.2-.34-.22-.84-.64-1.5-1.29-1.5-1.29-.53-.53-.79-.79-1.17-1.21-.38-.41-1.25-1.39-2.57-3.12-.81-1.06-1.41-1.92-1.73-2.38-.37-.53-1.59-2.31-3.09-4.85-.8-1.35-1.71-2.92-2.77-5.09-1.35-2.79-2.18-5.03-2.52-5.97-.67-1.86-1.04-3.21-1.59-5.17-.83-2.96-1.35-5.3-1.71-6.95-.36-1.62-.59-2.67-.86-4.16-.16-.9-.34-1.79-.49-2.69-.05-.27-.2-1-.51-2.45,0,0-.08-.38-.42-1.27-.18-.47-.3-.74-.59-.93-.08-.06-.31-.21-.59-.17-.19.02-.35.12-.64.44-.48.52-.69.93-.69.93-.64,1.26-.91,2.15-.91,2.15-.47,1.62-.74,2.91-.76,3.01-.27,1.35-.51,2.66-.78,4.28-.17,1.05-.38,2.3-.61,3.97-.17,1.23-.29,2.2-.51,4.14-.06.5-.22,1.87-.42,3.67-.24,2.16-.4,3.81-.47,4.48-.04.4-.12,1.21-.27,2.84-.28,2.96-.3,3.2-.32,3.55-.06,1.05-.06,1.93-.05,3.7.01,2.47.02,3.7.12,4.7.17,1.58.44,2.69.81,4.21.27,1.11.73,2.98,1.62,5.31.54,1.43,1.57,3.9,3.28,6.73,1,1.66,2.88,4.5,5.83,7.54,1.48,1.52,5.15,5.08,10.74,8.04,2.77,1.46,5.19,2.35,6.6,2.86,1.25.45,3.26,1.18,6,1.8,1.09.25,3.06.7,5.67.94,0,0,4.38.41,11.54-.5.86-.11,1.68-.28,1.68-.28.31-.07.78-.16,1.39-.34.35-.1.65-.21,1.24-.41.47-.16.71-.25.89-.33.72-.31,1.04-.58,1.2-.74.37-.36.4-.57.4-.69,0-.18-.09-.31-.11-.35-.18-.28-.51-.35-1.04-.46-.64-.13-.97-.2-1.08-.2-.51-.04-1.59-.28-3.76-.74-.89-.19-2.26-.49-3.93-1.02-1.83-.58-2.84-.9-4.09-1.65-.73-.44-1.84-1.11-2.91-2.39-.6-.71-1.6-2.11-2.09-4.09-.29-1.2-.28-2.17-.27-3.05,0-.5.04-1.56.33-3.08.22-1.14.76-3.42,2.11-6.1.86-1.69,1.69-2.84,3.32-5.08.88-1.21,1.63-2.16,2.11-2.75,1.47-1.8,2.71-3.12,3.46-3.9,3.06-3.19,6.05-5.97,7-6.87,6.12-5.72,5.47-5.38,8.18-7.8,4.85-4.32,8.9-7.15,12.93-9.94,2.03-1.41,5.94-3.87,13.68-8.75,3.14-1.98,5.73-3.61,7.48-4.7,2.84-1.86,4.93-3.42,5.81-4.24.37-.35.86-.89.83-1.54,0-.12-.02-.38-.2-.57-.24-.26-.7-.24-1.59-.14-1.12.13-1.87.29-1.87.29-1.59.34-.97.16-2.46.48-1.96.43-3.58.86-4.3,1.05-.33.09-3.53.92-7.22,1.67-2.28.46-4.06.75-5.31.96-3.19.52-5.61.81-6.07.86-4.09.48-7.26.62-10.1.73-3.92.16-7.8.18-13.32.47-.73.04-2.48.14-4.73.59-1.22.25-2.8.58-4.73,1.41-.7.3-2.17.98-3.8,2.14Z"
     id="path6" />
  <path
     d="M467.04,237.75c-2.88.01-5.23.51-6.88,1-2.65.78-4.51,1.83-5.91,2.63-.55.32-2.9,1.67-5.6,4.01-.34.3-1.86,1.62-3.64,3.61-1.05,1.17-2.6,2.91-4.15,5.46-.53.88-.35.66-1.97,3.75,0,0-.14.26-.78,1.88-.07.17-.24.61-.27,1.2-.03.61.12.84.2.93.17.19.38.26.47.28.7.2,1.5-.35,2.37-.91,0,0,.36-.23,2.12-1.29.69-.42,1.58-.95,2.73-1.48,1.45-.66,2.63-1,3.03-1.11.72-.2,1.91-.52,3.41-.59,1.06-.06,3.69-.16,6.52,1.25.42.21,1.69.87,2.98,2.13.66.64,1.4,1.37,1.88,2.58.29.73.36,1.25.37,1.38.04.44.05,1.18-.36,2.25-.3.8-.8,1.69-2.17,3.16-.43.47-1.58,1.67-3.92,3.47-1.71,1.32-2.92,2.09-2.92,2.09-.58.39-.96.67-1.73,1.25-.12.09-.47.39-1.18,1-.26.22-.49.43-.68.78-.12.22-.26.49-.19.81.07.35.34.56.42.62.33.24.71.25.89.24,1.26-.02,2.83-.51,3.55-.71.59-.17,1.02-.28,1.88-.49.98-.24,1.95-.48,3.09-.66.93-.15,2.27-.37,4-.34,1.26.02,1.89.03,2.75.32.5.17,1.6.56,2.48,1.6.16.19.7.86,1.09,2.25.13.48.47,1.86-.05,5.88-.2,1.52-.42,2.68-.58,3.52-.22,1.15-.36,1.7-.98,4.32-.83,3.52-.71,3.09-1.18,5.04-.37,1.55-.65,2.68-1.18,4.8-.98,3.96-1.01,3.98-1.24,5.04-.09.41-.51,2.38-.94,5.04-.16.99-.35,2.19-.52,3.66-.1.88-.46,4.16-.38,8.62.03,1.54.06,3.24.32,5.5.21,1.79.4,3.41,1.02,5.48.52,1.73,1.1,3.01,1.5,3.88.88,1.92,1.74,3.3,2.08,3.84.81,1.28,1.49,2.14,1.64,2.32.75.94,1.38,1.59,1.82,2.04.26.26,1.34,1.37,2.96,2.68,1.54,1.25,2.83,2.09,3.3,2.4.78.5,2.36,1.48,4.95,2.65,2.46,1.12,6.41,2.92,12.02,4.24,3.62.85,6.36,1.13,8.84,1.38.68.07,5.26.52,9.4.32.36-.02,1.83-.09,3.66-.34.84-.11,1.45-.23,2.67-.47,0,0,.28-.06,1.14-.29.44-.12.85-.24,1.26-.54.19-.14.37-.3.42-.54.01-.06.04-.2-.02-.34-.07-.16-.23-.26-.56-.36-.43-.12-.76-.12-1.06-.13-.38-.01-.76-.09-1.15-.13-.56-.06-2.34-.34-4.7-1.02-1.32-.38-3.13-.92-5.36-2-2.35-1.14-3.96-2.29-4.34-2.56-.59-.42-2.59-1.91-4.76-4.42-4.11-4.76-5.71-9.6-6.07-10.75-1.05-3.34-1.18-5.9-1.37-9.31-.22-4.02.06-6.88.57-11.91.15-1.45.71-6.85,2.07-14.41.64-3.58,1.34-7.42,2.67-12.44,1.6-6.03,2.79-8.76,3.55-10.36.58-1.22,1.69-3.41,3.38-5.97,1.02-1.53,2.36-3.55,4.56-5.85.61-.64,2.5-2.58,5.4-4.67,1.77-1.28,2.96-1.92,5.85-3.55,0,0,3.44-1.94,8.27-4.73,0,0,7.71-4.46,11.76-7.26.21-.14,1.33-.92,2.7-1.88.31-.22,1-.7,1.88-1.32,0,0,.68-.48,1.79-1.28,1.19-.86.06-.06,1.37-1.02.22-.16.66-.49,1.15-1.01.36-.38.55-.66.51-.97,0-.03-.03-.2-.16-.34-.26-.29-.79-.23-1.9.03-.89.21-1.69.45-2.47.71-.24.08-.64.21-1.44.48,0,0-.74.25-1.31.44-3.71,1.26-7.83,2.87-7.83,2.87-9.39,3.77-14.15,5.67-17.28,6.71-4.24,1.41-7.28,2.18-10.53,2.7-4.56.73-7.02.55-8.47.37-2.14-.26-4.44-.55-6.97-2.02-3.03-1.77-4.82-4.34-5.77-5.7-1.21-1.73-.92-1.82-2.02-3.28-2.05-2.69-4.39-4.12-5.53-4.8-2.57-1.54-4.81-2.13-6.33-2.52-2.36-.61-4.41-.8-5.93-.85Z"
     id="path7" />
  <path
     d="M583.75,291.62c-4.26,1.09-10.07,2.59-16.54,6-2.65,1.4-5.53,3.17-6.95,4.06-2.67,1.67-4.02,2.49-5.43,3.58-1.32,1.01-4.29,3.34-7.01,7.15-1.05,1.47-3.67,5.42-5.02,11.21-.53,2.28-1.78,7.92,0,14.78,2.23,8.6,7.79,13.59,9.63,15.2,2.84,2.48,5.69,4.03,7.72,5.13,1.45.79,4.68,2.45,9.08,3.86,1.57.51,3.73,1.19,6.68,1.68,3.47.57,6.14.56,8.12.54,0,0,5.28-.07,9.26-.86.71-.14,1.21-.3,1.96-.54.17-.06.67-.22,1.27-.54.79-.43.94-.69.99-.89.01-.06.08-.34-.06-.6-.15-.26-.43-.36-.93-.5-.91-.25-1.45-.34-1.45-.34-.56-.09-1.11-.23-1.67-.33,0,0-1.35-.23-3.03-.61-2.24-.52-4.09-.94-6.13-2.09-1.24-.7-2.03-1.37-2.2-1.51-.68-.59-1.74-1.51-2.55-3.05-.76-1.44-.93-2.72-1.03-3.52-.2-1.6-.02-2.79.23-4.28.2-1.24.59-3.53,1.84-6.2.41-.88.98-1.93,2.62-4.24,2.83-3.98,5.4-6.82,6.19-7.68.57-.63,1.99-2.16,6.74-6.74,4.22-4.07,6.33-6.1,8.53-8.02,3.99-3.47,7.18-5.81,10.03-7.89,5.23-3.82,9.65-6.58,13.44-8.96s5.49-3.44,6.83-4.24c.23-.14,1.36-.83,3.63-2.22.52-.32,1.59-.98,2.91-1.88,0,0,.88-.6,2.09-1.57,0,0,.44-.36,1.07-.98.4-.4.55-.59.68-.82.17-.31.44-.79.25-1.17-.16-.31-.57-.4-.86-.47-.23-.05-.43-.05-.82-.05,0,0-.38,0-.69.04-2.48.26-7.76,1.9-7.76,1.9-.77.24-2.32.57-5.43,1.23-1.88.4-5,1.06-8.96,1.68-4.92.77-8.75,1.11-10,1.22-4.55.39-5.4.22-10.39.7-1.52.15-3.62.35-6.25.73-5.38.78-9.45,1.8-10.63,2.11Z"
     id="path8" />
  <path
     d="M523.5,304.76c-1.43-.15-3.78-.4-5.88-2.07-1.02-.81-1.65-1.7-2.07-2.28-.42-.59-1.18-1.67-1.7-3.27-.44-1.38-.49-2.49-.55-3.81-.05-1.17-.09-2.07.05-3.26.09-.81.04-1.62.09-2.43.03-.52.07-1.02-.23-1.24-.28-.21-.72-.05-.87,0-1.72.6-3.58,4.04-3.58,4.04-1.34,2.48-2.01,3.73-2.89,5.88-.64,1.55-1.18,3.06-1.65,4.55-1.52,4.74-2.13,8.54-2.3,9.6-.25,1.59-.67,4.42-.69,8.17,0,1.2.01,5.25,1.01,10.47.39,2.05.88,4.56,2.07,7.76,1.34,3.61,2.89,6.27,3.77,7.67.91,1.45,2.7,4.11,5.51,6.98,1.3,1.33,3.61,3.52,6.89,5.69.98.65,4.5,2.93,9.67,4.79,1.51.54,6.57,2.28,13.32,2.75,0,0,3.81.26,9.96-.27,1.28-.11,2.23-.3,2.65-.39.18-.04.85-.18,1.72-.44.41-.12.8-.27,1.59-.57.75-.28,1.11-.44,1.3-.8.05-.09.18-.33.11-.61,0-.04-.06-.21-.24-.37-.4-.37-1.05-.34-1.64-.36-.09,0-.61-.06-1.67-.17-.8-.08-1.35-.21-2.34-.45-1.43-.34-2.96-.7-4.7-1.34-3.15-1.16-5.58-2.7-7.09-3.79-1.24-.9-2.92-2.26-4.64-4.15-.61-.67-3.16-3.54-5.24-8.02-.43-.94-.99-2.16-1.5-3.87-.17-.58-.86-3.02-1.01-6.71-.15-3.9.4-6.87.88-9.34.19-.99.75-3.72,1.88-7.15,1.55-4.68,2.65-7.99,3.56-10.01,0,0,.57-1.27.8-3.07.05-.41.04-.66,0-1.16-.04-.52-.1-.7-.2-.84-.23-.33-.6-.43-.68-.45-.51-.14-.98.11-2.49,1.13-1.18.79-1.29.91-1.9,1.27-.4.24-1.01.61-1.77.93-.25.11-1.22.52-2.89.8-1,.17-2.49.41-4.41.21Z"
     id="path9" />
  <path
     d="M531.8,266.82c-1.2-.06-2.82-.15-4.75.29-1.06.24-3.08.72-5.07,2.33-1.81,1.47-2.67,3.12-3.23,4.21-.99,1.92-1.33,3.57-1.58,4.85-.1.47-.43,2.23-.45,4.61,0,1.33,0,3.47.69,6.09.43,1.63,1.08,4.07,3.07,6.49,1.03,1.25,2.41,2.93,4.87,3.7,2.83.89,5.3.02,6.17-.28,1.87-.65,3.11-1.67,3.76-2.23,1.24-1.04,1.99-2.06,2.68-3,.71-.97,1.23-1.68,1.68-2.79.26-.66.68-1.72.69-3.12.01-1.31-.3-2.62-.3-2.63-.21-.89-.4-1.18-.29-1.73.17-.85.86-1.39,1.18-1.63.58-.45,1.14-.61,2-.84.17-.05.75-.2,1.93-.36,1.29-.17,2.24-.29,3.51-.19.44.03,1.15.09,2.05.33,1.06.28,1.95.7,2.35.88.4.19.75.31,1.47.55.45.15.8.26,1.07.08.2-.14.26-.38.27-.43.13-.57-.39-1.16-.81-1.61-.61-.66-1.37-1.46-2.29-2.36-.44-.42-1.07-1.01-1.83-1.7-1.16-1.05-2.13-1.92-3.37-2.84-1.04-.77-1.83-1.25-2.99-1.94-3.03-1.82-5.33-2.82-5.92-3.08-2.21-.95-3.3-1.21-3.85-1.32-1.19-.25-2.13-.3-2.73-.33Z"
     id="path10" />
  <path
     d="M457.51,282.51s6.37-1.81,8.3-.26c.45.36.72.82.72.82.44.75.42,1.54.38,2.04-.25,3.15-1.61,6.08-1.61,6.08-1.33,2.84-2.54,4.91-2.8,5.36-2.01,3.41-3.47,5.72-4.28,7.02-2.13,3.42-3.92,6.3-5.47,9.67-.6,1.31-2.73,6.06-3.93,12.71-.93,5.17-1.5,8.28-.59,12.43,1.02,4.68,3.33,8.03,4.43,9.59,1.85,2.64,3.74,4.38,4.7,5.21,2.63,2.28,5.02,3.51,5.7,3.84,1.77.88,3.39,1.42,4.09,1.65,1.03.34,1.94.58,2.53.73,1.45.36,2.85.62,3.48.73.61.11,1.21.23,1.82.34,0,0,.63.12,1.74.42.71.19,1.07.32,1.2.64.1.24.02.49,0,.55-.19.56-.92.79-1.25.88-4.19,1.23-5.67,1.38-5.67,1.38-1.86.18-2.78.27-4.33.33-1.73.07-3.96.15-6.86-.07-3.32-.25-5.78-.76-7.35-1.09-.52-.11-4.6-.99-8.27-2.49-2.41-.99-3.21-1.66-3.57-1.99-.08-.08-.51-.44-1.37-1.18-.74-.64-1.13-.96-1.67-1.11-.2-.06-.65-.18-1.19-.06-.57.12-.94.44-1.37.82-.34.3-.55.55-1.01,1.13-1.1,1.38-1.09,1.41-1.37,1.74-.1.11-.8.9-1.8,1.59-1,.68-1.93,1.02-2.81,1.28-2.67.81-5.11,1.09-6,1.19-1.96.21-4.09.44-7.02.36-.96-.03-4.01-.14-7.89-.92-.79-.16-3.15-.65-6.11-1.64-1.39-.46-2.36-.85-4.01-1.51-2.65-1.06-4.6-1.95-5.89-2.54-2.35-1.08-3.46-1.67-3.87-1.89-2.24-1.2-3.09-1.85-3.35-2.06-.97-.76-1.87-1.46-2.66-2.72-.88-1.4-1.14-2.7-1.27-3.37-.17-.9-.23-1.89-.12-3.17.3-3.26,1.55-6.04,2.18-7.33.38-.78,1.93-3.85,5.78-8.16,2.07-2.32,3.79-3.85,5.74-5.58,6.01-5.32,9.02-7.98,11.68-10.14,8.49-6.88,15.52-11.61,18.73-13.75,2.3-1.54,5.22-3.49,8.71-5.67,2.82-1.76,4.77-2.97,7.54-4.51,2.4-1.33,5.69-3.13,10.17-4.95,0,0,2.92-1.19,7.15-2.39ZM403.94,329.02c-.56,1.02-2.48,4.64-1.82,9.3.34,2.38,1.21,4.1,1.78,5.19.49.93,1.47,2.6,3.14,4.32.81.83,1.92,1.95,3.71,2.91,1.94,1.05,3.63,1.35,4.68,1.52,3.54.59,6.34-.07,7.64-.39,1.69-.41,4.16-1.05,6.64-3.01,1.23-.97,2.9-2.3,3.62-4.67.54-1.76.29-3.27.19-3.9-.37-2.15-1.42-3.6-2.04-4.44-.89-1.22-1.77-1.96-2-2.14-1.1-.9-2.19-1.44-2.62-1.64-1.19-.58-1.72-.63-2.65-1.34-.68-.52-.97-.93-1.12-1.18-.36-.61-.45-1.14-.54-1.68-.03-.18-.15-.96-.02-2.06.1-.81.29-1.38.53-2.1.17-.51.54-1.55,1.23-2.81.42-.79.81-1.5,1.52-2.35.29-.35.85-1.01,1.68-1.65.69-.53,1.03-.8,1.15-.87.43-.25.76-.35.89-.69.07-.2.07-.47-.06-.65-.24-.32-.8-.28-1.1-.25-2.11.21-3.76.78-3.76.78-2.69.94-2.19.71-3.14,1.08-1.62.62-2.81,1.18-3.6,1.54-1.08.5-2,.93-3.08,1.54-1.91,1.07-3.18,2.04-5.01,3.44-1.8,1.38-2.72,2.09-3.63,3.11-1.29,1.44-2.02,2.75-2.22,3.1Z"
     id="path11" />
</svg>
